<svg width="32" height="32" viewBox="0 0 32 32" fill="none" xmlns="http://www.w3.org/2000/svg">
<g clip-path="url(#clip0)">
<path d="M24.1423 6.98941C24.3633 7.13648 24.6585 7.12629 24.8695 6.96566C25.0684 6.81435 25.1569 6.54904 25.0926 6.30835C25.0236 6.05029 24.7897 5.86066 24.523 5.84622C24.2575 5.83185 24.0063 5.99335 23.9085 6.24016C23.802 6.5091 23.8991 6.83004 24.1423 6.98941Z" fill="#2A2A2A"/>
<path d="M26.8653 8.23501C26.6567 7.96008 26.2648 7.90602 25.9897 8.11483C25.7147 8.32339 25.6609 8.71545 25.8695 8.99051C28.34 12.2475 29.6878 16.1073 29.7813 20.18L27.3541 20.9503C27.0971 19.107 26.6852 17.388 26.1269 15.8308C26.1269 15.8307 26.1269 15.8306 26.1268 15.8305C25.5581 14.2427 24.8226 12.7832 23.9406 11.4924C23.9402 11.4919 23.94 11.4916 23.9397 11.4911C20.9791 7.15827 16.2671 4.52391 9.9267 3.65404L10.6999 1.25506C14.7945 1.34643 18.6771 2.67617 21.9557 5.11472C22.0678 5.19803 22.1985 5.23828 22.3282 5.23828C22.5191 5.23828 22.7075 5.15109 22.8302 4.98622C23.0362 4.70922 22.9786 4.31779 22.7016 4.11173C19.0851 1.4218 14.778 0 10.2463 0C9.97501 0 9.73464 0.175061 9.65145 0.43331L4.85148 15.3268L3.19424 20.4684C3.19318 20.4717 3.19218 20.4751 3.19118 20.4784L1.06631 27.0715C0.822003 27.8305 1.02044 28.6537 1.58419 29.2199C2.15362 29.7917 2.9863 29.9952 3.75742 29.7504L12.8936 26.8508V29.3548C12.8936 30.7748 14.0355 31.9609 15.4392 31.999C15.4639 31.9997 15.4885 32.0001 15.5132 32.0001C16.2023 32.0001 16.8501 31.7378 17.3441 31.2569C17.8516 30.763 18.1311 30.1021 18.1311 29.3961V25.1885L21.4143 24.1465V26.9811C21.4143 28.1952 22.4079 29.1829 23.6292 29.1829C24.2193 29.1829 24.7747 28.9546 25.1935 28.5394C25.6127 28.1228 25.8435 27.5694 25.8435 26.981V22.7408L30.6005 21.2313C30.8601 21.149 31.0365 20.9079 31.0365 20.6356C31.0365 16.1205 29.5941 11.8324 26.8653 8.23501ZM23.1651 12.5852C23.7951 13.5674 24.3385 14.6488 24.786 15.8104C24.5248 15.9515 24.2306 16.0267 23.9286 16.0267C22.9332 16.0267 22.1236 15.217 22.1236 14.2217C22.1236 13.5124 22.5436 12.8769 23.1651 12.5852ZM6.46091 19.4974C5.95885 19.9956 5.28141 20.2398 4.59723 20.1906L6.0141 15.7944C6.17553 15.8923 6.32566 16.0095 6.46041 16.1432C6.9124 16.5917 7.16128 17.1875 7.16128 17.8208C7.16121 18.4538 6.91253 19.0493 6.46091 19.4974ZM4.41436 28.2302C4.42329 27.255 5.21941 26.4642 6.19678 26.4642C6.77909 26.4642 7.31434 26.7513 7.64334 27.2055L4.41436 28.2302ZM14.5502 24.683C13.6365 25.5899 12.1498 25.5898 11.2361 24.683C10.795 24.2454 10.5522 23.6638 10.5522 23.0456C10.5522 22.4272 10.7951 21.8457 11.2361 21.4079C11.693 20.9546 12.2931 20.7279 12.8932 20.7279C13.4933 20.7279 14.0934 20.9546 14.5502 21.4079C14.9913 21.8456 15.2342 22.4272 15.2342 23.0456C15.2341 23.6638 14.9912 24.2454 14.5502 24.683ZM25.0294 21.6879C24.7699 21.7704 24.5935 22.0114 24.5935 22.2836V26.9811C24.5935 27.234 24.4937 27.4725 24.3129 27.6522C24.1303 27.8332 23.8875 27.9329 23.6292 27.9329C23.0971 27.9329 22.6642 27.5059 22.6642 26.9811V23.2924C22.6642 23.0931 22.5691 22.9057 22.4083 22.788C22.2475 22.6703 22.0401 22.6364 21.8501 22.6967L17.317 24.1355C17.0575 24.2179 16.8811 24.4589 16.8811 24.7312V29.3961C16.8811 29.7619 16.7359 30.1046 16.4722 30.3611C16.2045 30.6218 15.8512 30.7606 15.473 30.7495C14.74 30.7296 14.1436 30.104 14.1436 29.3548V26.3899C14.6134 26.2174 15.0539 25.9442 15.4307 25.5704C15.4307 25.5704 15.4307 25.5704 15.4307 25.5703C16.11 24.8962 16.4841 23.9995 16.4841 23.0455C16.4841 22.0914 16.11 21.1948 15.4307 20.5207C14.0315 19.1321 11.7549 19.1321 10.3556 20.5206C9.67626 21.1948 9.3022 22.0915 9.3022 23.0455C9.3022 23.9995 9.67626 24.8962 10.3556 25.5703C10.5739 25.7869 10.8136 25.9698 11.0679 26.1188L8.87071 26.8162C8.35058 25.8489 7.32578 25.2143 6.19678 25.2143C4.52467 25.2143 3.1643 26.5747 3.1643 28.2468C3.1643 28.3651 3.17111 28.4826 3.18461 28.5991C2.92099 28.6243 2.66368 28.5326 2.46993 28.338C2.23424 28.1013 2.15431 27.771 2.25612 27.4547L4.2063 21.4037C4.39498 21.4331 4.58411 21.4477 4.77235 21.4477C5.72035 21.4477 6.64272 21.0782 7.3414 20.3848C8.03127 19.7002 8.41121 18.7896 8.41121 17.821C8.41121 16.8519 8.03109 15.941 7.34084 15.256C7.06609 14.9834 6.74884 14.7561 6.40441 14.5834L9.53708 4.86328C15.2976 5.61091 19.6331 7.85858 22.4431 11.5525C21.4982 12.0821 20.8735 13.0972 20.8735 14.2219C20.8735 15.9064 22.244 17.2769 23.9285 17.2769C24.3722 17.2769 24.8058 17.1808 25.2018 16.9993C25.6245 18.3354 25.9406 19.7881 26.1447 21.3339L25.0294 21.6879Z" fill="#2A2A2A"/>
<path d="M16.8606 10.5831C16.8606 9.57802 16.4664 8.6334 15.7507 7.92308C14.2765 6.46021 11.8776 6.46021 10.4034 7.92308C9.68771 8.63334 9.29352 9.57796 9.29352 10.5831C9.29352 11.5882 9.68771 12.5328 10.4034 13.2431C11.1405 13.9745 12.1088 14.3403 13.077 14.3403C14.0453 14.3403 15.0135 13.9745 15.7507 13.2431C16.4664 12.5328 16.8606 11.5882 16.8606 10.5831ZM14.8702 12.3557C13.8815 13.3369 12.2726 13.3369 11.2839 12.3557C10.8064 11.882 10.5435 11.2525 10.5435 10.5831C10.5435 9.91371 10.8064 9.28421 11.2839 8.81046C11.7783 8.31984 12.4276 8.07458 13.077 8.07458C13.7265 8.07458 14.3758 8.3199 14.8702 8.81046C15.3477 9.28421 15.6105 9.91371 15.6105 10.5831C15.6106 11.2525 15.3477 11.882 14.8702 12.3557Z" fill="#2A2A2A"/>
<path d="M19.3035 15.9468C18.0322 14.6339 15.9232 14.6066 14.602 15.8857C14.4829 16.0011 14.4145 16.1589 14.4118 16.3246C14.4092 16.4903 14.4724 16.6504 14.5877 16.7694L18.3292 20.6334C18.4518 20.7601 18.6149 20.8237 18.7783 20.8237C18.9348 20.8237 19.0917 20.7652 19.213 20.6478C20.5341 19.3686 20.5747 17.2598 19.3035 15.9468ZM18.7266 19.247L15.9864 16.4171C16.777 16.0184 17.7636 16.1535 18.4054 16.8164C19.0473 17.4793 19.1505 18.4697 18.7266 19.247Z" fill="#2A2A2A"/>
</g>
<defs>
<clipPath id="clip0">
<rect width="32" height="32" fill="white"/>
</clipPath>
</defs>
</svg>
